<svg version="1.2" baseProfile="tiny-ps" xmlns="http://www.w3.org/2000/svg" viewBox="0 0 200 174" width="200" height="174">
	<title>SvgjsG1241</title>
	<style>
		tspan { white-space:pre }
		.s0 { fill: #111111 } 
	</style>
	<g id="SvgjsG1241">
		<path id="Layer" fill-rule="evenodd" class="s0" d="m39.77 69.16c0.44 0.22 0.95 0.49 1.55 0.82c0.6 0.33 1.17 0.82 1.72 1.48c0.54 0.66 1.01 1.5 1.39 2.54c0.38 1.04 0.57 2.37 0.57 4.01c-0.23 5.67-1.66 10.8-4.28 15.38c-2.63 4.58-5.77 8.45-9.43 11.6c-3.66 3.16-7.46 5.5-11.39 7.02c-3.93 1.52-7.26 2.06-9.99 1.62c-0.02 10.58 0.05 19.42 0.2 26.51c0.15 7.09 0.25 12.9 0.29 17.43c0.05 4.53 0.04 7.94-0.02 10.23c-0.06 2.29-0.23 3.87-0.5 4.75c-0.27 0.87-0.77 1.28-1.48 1.22c-0.71-0.06-1.61-0.19-2.7-0.41c-0.22 0.33-0.38 0.05-0.49-0.82c-0.11-0.76-0.19-2.13-0.24-4.09c-0.05-1.96-0.07-5.02-0.06-9.17c0-0.33-0.02-2.21-0.07-5.65c-0.05-3.44-0.09-7.75-0.14-12.93c-0.04-5.18-0.14-10.88-0.3-17.1c-0.15-6.22-0.33-12.28-0.54-18.17c-0.21-5.89-0.44-11.35-0.71-16.37c-0.26-5.02-0.61-8.89-1.04-11.62c0-0.22-0.05-0.76-0.16-1.64l-0.4-3.27l-0.65-4.26l-0.89-4.42c1.86-0.11 3.11 0.09 3.76 0.58c0.65 0.49 1.31 1.07 1.96 1.72c0.65 2.07 1.27 5.4 1.86 9.99c0.59 4.58 1.26 10.8 2.01 18.66c0.22-1.09 0.8-2.62 1.73-4.58c0.93-1.96 2.16-4.06 3.7-6.29c1.53-2.23 3.28-4.44 5.25-6.62c1.97-2.18 4.05-4.03 6.23-5.55c2.19-1.52 4.4-2.58 6.64-3.18c2.24-0.6 4.45-0.4 6.63 0.59v0zm-20.69 36.79c5.02-2.06 8.99-4.73 11.88-8c2.9-3.27 5.01-6.51 6.32-9.73c1.32-3.22 1.98-6.08 1.98-8.59c0-2.51-0.48-4.09-1.46-4.75c-2.18-1.42-4.25-1.59-6.22-0.5c-1.97 1.09-3.88 2.39-5.74 3.92c-0.98 0.87-2.35 2.42-4.1 4.66c-1.75 2.23-3.5 4.71-5.25 7.44c-1.75 2.72-3.26 5.48-4.52 8.26c-1.26 2.78-1.89 5.21-1.9 7.28c0.44 0.55 1.09 0.93 1.96 1.15c0.65 0.22 1.55 0.28 2.7 0.17c1.15-0.11 2.59-0.54 4.34-1.3l0 0zm65.55-39.98c-0.11 0.65-0.36 2.02-0.74 4.09c-0.39 2.07-0.8 4.5-1.24 7.28c-0.44 2.78-0.83 5.7-1.16 8.75c-0.33 3.05-0.53 5.95-0.59 8.67c-0.06 2.73 0.1 5.05 0.48 6.96c0.38 1.91 1 3.08 1.88 3.52c2.51 1.2 5.07 0.8 7.7-1.21c2.62-2.01 5.68-5.09 9.18-9.23c0.33 0 0.35 0.44 0.08 1.31c-0.27 0.87-0.71 1.83-1.32 2.86l-1.81 3.11l-1.4 2.04c-0.88 1.09-2.13 2.31-3.77 3.68c-1.64 1.36-3.39 2.45-5.24 3.26c-1.86 0.81-3.63 1.17-5.32 1.05c-1.69-0.11-3.08-1.1-4.17-2.95c-0.54-1.31-0.87-2.92-0.97-4.83c-0.11-1.91-0.1-3.85 0.01-5.81c0.11-1.96 0.28-3.76 0.5-5.4c0.22-1.64 0.39-2.84 0.5-3.6c-2.3 4.25-4.93 8.28-7.88 12.1c-2.95 3.81-5.85 6.81-8.69 8.99c-2.84 2.18-5.46 3.34-7.86 3.5c-2.4 0.16-4.25-1.24-5.56-4.18c-0.76-2.84-0.75-6.03 0.02-9.57c0.77-3.54 1.92-6.73 3.46-9.57c2.3-3.92 4.71-7.52 7.22-10.79c2.52-3.27 5.19-6.05 8.04-8.33c2.84-2.29 5.82-3.94 8.93-4.98c3.11-1.03 6.36-1.27 9.74-0.72v0zm-30.85 41.51c1.09 0.22 2.84-0.6 5.24-2.45c2.4-1.85 4.92-4.44 7.54-7.76c2.63-3.32 5.01-7.19 7.14-11.61c2.14-4.42 3.54-9.08 4.2-13.99l-1.88 0l-2.87 0.98c-4.15 2.72-7.7 5.91-10.66 9.55c-2.95 3.65-5.25 7.19-6.9 10.63c-1.64 3.43-2.63 6.51-2.96 9.24c-0.33 2.73 0.05 4.53 1.14 5.4v0zm45.43-45.09c-0.11-0.98 0.41-1.23 1.56-0.73c1.14 0.49 2.32 1.01 3.52 1.56c0.43 2.51 0.76 4.5 0.97 5.98c0.22 1.47 0.38 2.86 0.48 4.17c0.11 1.31 0.21 2.73 0.32 4.26c0.11 1.53 0.27 3.55 0.48 6.06c0.99-2.51 2.19-4.82 3.61-6.95c1.42-2.13 3.25-3.95 5.49-5.47c2.24-1.52 4.92-2.64 8.03-3.34c3.11-0.7 6.85-0.94 11.21-0.72c0 0.87-0.3 1.61-0.9 2.21c-0.6 0.6-1.99 1.06-4.18 1.38c-3.17 0.54-5.92 1.6-8.27 3.18c-2.35 1.58-4.37 3.4-6.07 5.47c-1.7 2.07-3.06 4.28-4.1 6.62c-1.04 2.34-1.89 4.5-2.55 6.46c-0.11 0.98-0.25 2.37-0.42 4.17c-0.17 1.8-0.28 3.71-0.34 5.73c-0.06 2.02-0.12 3.98-0.17 5.89c-0.06 1.91 0.02 3.41 0.24 4.5c0.11 0.55-0.14 0.95-0.74 1.23c-0.6 0.27-1.28 0.46-2.05 0.57c-0.76 0.11-1.47 0.05-2.13-0.17c-0.65-0.22-0.98-0.6-0.98-1.15c0.24-11.24-0.04-20.92-0.85-29.05c-0.8-8.13-1.53-15.41-2.17-21.85l0 0zm43.63 44.6c0.76 0.55 2.02-0.38 3.77-2.78c1.75-2.4 3.45-5.48 5.09-9.24c1.64-3.76 3.02-7.77 4.11-12.02c1.1-4.25 1.43-7.96 1-11.13c0-0.65 0.27-1.06 0.82-1.23c0.55-0.16 1.17-0.24 1.88-0.24c0.71 0 1.42 0.06 2.13 0.17c0.71 0.11 1.23 0.22 1.55 0.33c-0.22 2.4-0.53 5.43-0.92 9.08c-0.39 3.65-0.64 7.28-0.76 10.88c-0.12 3.6 0.01 6.87 0.39 9.82c0.38 2.95 1.27 4.86 2.69 5.73c1.2 0.77 2.59 0.71 4.17-0.16c1.58-0.87 3.11-1.96 4.59-3.26c1.48-1.31 2.81-2.48 4.02-3.51c1.2-1.03 1.97-1.39 2.29-1.06c-0.44 1.85-1.37 3.65-2.79 5.4c-1.42 1.74-3.03 3.21-4.84 4.41c-1.8 1.2-3.71 2.04-5.73 2.53c-2.02 0.49-3.85 0.4-5.48-0.26c-0.65-0.11-1.17-0.74-1.55-1.89c-0.38-1.15-0.7-2.48-0.97-4.01c-0.27-1.53-0.49-3.17-0.65-4.91c-0.16-1.75-0.35-3.33-0.56-4.75l-2.96 5.89l-3.29 6.21l-3.12 5.07l-2.46 2.45c-2.18 0.87-3.88 1.06-5.08 0.56c-1.2-0.49-2.02-1.18-2.45-2.05c-0.65-0.33-1.12-1.45-1.39-3.36c-0.27-1.91-0.48-4.34-0.64-7.28c-0.16-2.95-0.23-6.27-0.23-9.98l0.02-11.37l-0.14-11.46l-0.47-10.39c0.76 0 1.53 0.06 2.29 0.17c0.65 0.11 1.31 0.25 1.96 0.41c0.65 0.16 1.2 0.52 1.64 1.07c0.54 2.51 0.61 6.93 0.22 13.26c-0.39 6.33-0.71 13.97-0.94 22.91c0 0.33 0.03 0.95 0.08 1.88c0.05 0.93 0.16 1.94 0.32 3.03c0.16 1.09 0.43 2.13 0.81 3.11c0.38 0.98 0.9 1.64 1.55 1.97h0zm42.45-26.6c0 0.33 0.16 1.86 0.48 4.58c0.32 2.73 0.7 6.06 1.13 9.99c0.43 3.93 0.94 8.16 1.53 12.69c0.59 4.53 1.13 8.84 1.61 12.93c0.48 4.09 0.94 7.69 1.37 10.8c0.43 3.11 0.7 5.1 0.81 5.98c-0.65-0.11-1.2-0.22-1.64-0.33c-0.44-0.11-0.87-0.38-1.31-0.82c-0.44-0.44-0.95-1.07-1.55-1.89c-0.6-0.82-1.44-1.99-2.53-3.52c-1.4-10.04-2.5-18.8-3.31-26.27c-0.8-7.48-1.48-13.56-2.01-18.25c-1.97 2.61-3.39 4.36-4.27 5.23c-0.87 0.87-1.42 1.31-1.64 1.31c-0.33 0-0.38-0.49-0.16-1.47l0.33-1.64l0.33-1.47l0.49-1.14c0.77-1.09 1.45-2.18 2.05-3.27c0.6-1.09 1.07-2.07 1.4-2.94c0.44-1.09 0.77-2.13 0.99-3.11c-0.11-1.2-0.19-2.24-0.24-3.11c-0.05-0.87-0.08-1.77-0.08-2.7c0-0.93-0.02-1.88-0.08-2.86c-0.05-0.98-0.08-2.24-0.07-3.76l0.01-6.46l0.02-9.66l0.18-11.21l0.43-11.21l0.67-9.66l0.91-6.63c0.77-3.16 1.95-5.59 3.53-7.28c1.59-1.69 3.25-2.67 5-2.94c1.75-0.27 3.46 0.17 5.15 1.32c1.69 1.15 2.97 2.92 3.84 5.33c0.98 2.4 1.46 5.51 1.46 9.33c-0.01 3.82-0.34 7.99-1.01 12.52c-0.66 4.53-1.57 9.24-2.73 14.15c-1.16 4.91-2.39 9.68-3.71 14.31c-1.32 4.63-2.64 8.97-3.95 13c-1.32 4.03-2.47 7.42-3.46 10.14l0 0zm-1.29-9.33c2.74-7.96 4.99-15.78 6.76-23.47c1.76-7.69 3.06-14.59 3.89-20.7c0.83-6.11 1.11-11.05 0.85-14.81c-0.27-3.76-1.05-5.7-2.36-5.81c-2.07-0.77-3.71-0.06-4.91 2.12c-1.2 2.18-2.17 5.23-2.88 9.16c-0.72 3.93-1.19 8.43-1.42 13.5c-0.23 5.07-0.32 10.12-0.27 15.14c0.05 5.02 0.12 9.77 0.22 14.24c0.1 4.47 0.15 8.02 0.14 10.64l0 0z" />
	</g>
</svg>